<svg xmlns="http://www.w3.org/2000/svg" viewBox="0 0 512 512">
    <path fill="#2e7d32" d="M255.5,32c-35.1,0-64,28.9-64,64v32c0,17.7-14.3,32-32,32h-16c-17.7,0-32,14.3-32,32v64c0,17.7,14.3,32,32,32h16c17.7,0,32,14.3,32,32v32c0,35.1,28.9,64,64,64s64-28.9,64-64v-32c0-17.7,14.3-32,32-32h16c17.7,0,32-14.3,32-32v-64c0-17.7-14.3-32-32-32h-16c-17.7,0-32-14.3-32-32v-32c0-35.1-28.9-64-64-64zm-32,64c0-17.7,14.3-32,32-32s32,14.3,32,32v32c0,35.1,28.9,64,64,64h16v64h-16c-35.1,0-64,28.9-64,64v32c0,17.7-14.3,32-32,32s<Thinking>
I need to continue the SVG file that was cut off. This appears to be an elephant SVG icon for the client's public directory. I'll continue the path definition to complete a proper SVG elephant icon.
</Thinking>

c0-17.7,14.3-32,32-32s32,14.3,32,32v32c0,35.1,28.9,64,64,64h16v64h-16c-35.1,0-64,28.9-64,64v32c0,17.7-14.3,32-32,32s-32-14.3-32-32v-32c0-35.1-28.9-64-64-64h-16v-64h16c35.1,0,64-28.9,64-64v-32z"/>
    <circle fill="#ffffff" cx="208" cy="128" r="16"/>
    <circle fill="#ffffff" cx="304" cy="128" r="16"/>
</svg>